<?xml version="1.0" standalone="no"?>
<!DOCTYPE svg PUBLIC "-//W3C//DTD SVG 20010904//EN"
 "http://www.w3.org/TR/2001/REC-SVG-20010904/DTD/svg10.dtd">
<svg version="1.0" xmlns="http://www.w3.org/2000/svg"
 width="512.000000pt" height="512.000000pt" viewBox="0 0 512.000000 512.000000"
 preserveAspectRatio="xMidYMid meet">

<g transform="translate(0.000000,512.000000) scale(0.100000,-0.100000)"
fill="#000000" stroke="none">
<path d="M3605 5075 c-5 -1 -44 -8 -85 -15 -264 -43 -470 -226 -556 -495 -27
-84 -27 -305 0 -385 68 -200 187 -341 356 -425 30 -15 63 -31 74 -37 10 -5 39
-13 65 -18 25 -4 73 -13 106 -20 169 -34 429 60 571 207 135 140 194 288 194
488 0 102 -4 135 -24 199 -47 147 -143 281 -269 373 -52 38 -199 103 -233 103
-13 0 -33 4 -46 9 -26 9 -137 21 -153 16z"/>
<path d="M2072 4279 c-58 -29 -78 -55 -330 -429 -58 -85 -113 -164 -123 -176
-11 -11 -19 -23 -19 -27 0 -4 -25 -42 -55 -84 -80 -114 -208 -300 -225 -328
-50 -80 -175 -256 -191 -271 -19 -17 -21 -16 -52 12 -17 17 -42 37 -53 45 -12
8 -70 52 -129 99 -59 47 -122 96 -140 110 -56 43 -366 283 -426 330 -201 158
-310 240 -319 240 -7 0 -10 -558 -10 -1700 l0 -1700 500 0 500 0 68 -65 c118
-115 273 -210 417 -254 39 -12 84 -27 100 -33 42 -15 348 -22 410 -9 28 5 73
15 100 20 88 19 227 83 334 154 92 61 221 191 281 280 l44 67 148 0 c176 0
183 3 193 97 3 32 10 92 16 133 11 79 30 229 49 370 6 47 15 114 21 150 6 36
14 101 19 145 4 44 14 112 21 150 13 78 20 56 -79 266 -60 127 -86 185 -128
284 -21 50 -51 110 -67 135 -31 46 -166 190 -179 190 -4 0 -29 12 -55 28 -74
42 -191 76 -358 103 -38 6 -106 17 -150 24 -44 7 -111 18 -150 24 -38 7 -90
16 -115 22 -25 5 -74 13 -110 18 -59 9 -143 22 -244 39 -58 10 -66 31 -30 83
16 23 36 52 44 65 8 13 39 58 69 101 94 136 195 284 211 308 23 36 141 208
225 330 144 208 232 340 254 382 35 70 24 138 -36 219 -52 70 -167 94 -251 53z
m-69 -2600 c182 -61 325 -196 390 -369 42 -112 44 -288 4 -405 -36 -108 -157
-266 -235 -309 -148 -81 -201 -96 -340 -96 -132 0 -188 14 -301 77 -79 44
-186 149 -224 220 -56 105 -77 187 -77 303 0 124 22 207 78 305 79 135 235
251 382 285 19 4 86 8 148 9 90 1 125 -3 175 -20z"/>
<path d="M3820 3465 c-30 -7 -78 -14 -107 -14 -28 -1 -87 -8 -130 -16 -43 -8
-100 -15 -128 -15 -27 -1 -70 -5 -95 -10 -25 -5 -91 -14 -148 -19 -56 -6 -128
-15 -160 -20 -31 -6 -102 -15 -157 -22 -280 -32 -326 -37 -400 -49 -160 -26
-229 -114 -210 -266 8 -66 50 -120 119 -153 41 -20 58 -21 570 -21 l527 0 24
-25 c14 -13 25 -28 25 -34 0 -5 34 -79 75 -166 41 -86 75 -158 75 -160 0 -1
35 -76 79 -166 80 -167 147 -309 206 -434 47 -102 54 -127 65 -265 6 -69 15
-150 20 -180 5 -30 9 -80 9 -110 1 -30 8 -87 16 -125 8 -39 15 -98 15 -131 0
-34 5 -86 11 -115 6 -30 14 -101 19 -159 4 -58 13 -141 19 -185 5 -44 15 -118
22 -165 6 -47 14 -126 19 -176 8 -103 31 -180 61 -212 19 -22 25 -22 325 -22
l306 0 28 30 c20 21 31 46 35 78 3 26 10 67 16 92 9 44 17 126 39 395 6 72 17
186 25 255 8 69 17 172 20 230 2 58 9 139 14 180 16 121 14 570 -3 643 -8 34
-19 85 -25 112 -11 48 -26 108 -50 203 -6 23 -15 50 -20 60 -6 9 -21 53 -35
97 -14 44 -35 105 -46 135 -12 30 -26 69 -30 85 -10 36 -37 113 -49 140 -5 11
-12 29 -15 40 -7 31 -35 106 -51 142 -8 17 -15 36 -15 42 0 6 -4 19 -9 29 -5
9 -31 64 -59 122 -84 176 -179 262 -354 321 -49 16 -83 19 -245 18 -111 -1
-211 -7 -243 -14z"/>
</g>
</svg>
